<?xml version="1.0" encoding="UTF-8"?>
<svg id="Layer_2" data-name="Layer 2" xmlns="http://www.w3.org/2000/svg" viewBox="0 0 569.54 377.18">
  <defs>
    <style>
      .cls-1 {
        fill: #231f20;
        stroke-width: 0px;
      }
    </style>
  </defs>
  <g id="Layer_2-2" data-name="Layer 2">
    <path class="cls-1" d="M562.03,0c-16.18-.32-39.46,7.83-52.32,21.22-36.4,37.91-31.01,47.61-50.69,62.18-27.88,20.63-64.35,26.37-81.9,27.97-6.26-7.23-14.54-13.83-25.55-18.49-29.09-12.31-65.88-11.56-68.36-11.49-2.96-.15-50.14-2.2-74.96,12.67-6.34,3.8-11.97,9.83-16.77,17.21-17.89-1.72-53.57-7.62-80.96-27.88-19.69-14.56-14.29-24.27-50.69-62.18C46.97,7.84,23.69-.31,7.51,0,1.72.12-2.37,4.82,1.55,9.08c6.17,6.72,25.92,9.33,36.7,33.33,16.23,36.11,20.55,67.07,43.15,86.29,19.71,16.76,29.1,23.81,92.81,32.81-.12.94-.22,1.87-.32,2.81-8.86,0-20.26,1.34-33.44,5.92-31.82,11.06-38.79,19.69-39.08,24.81-.29,5.12,4.67,20.28,33.15,33.98,20.39,9.81,34.89,12.08,55.63,9.84,3.57,27.79,6.87,52.42,8.01,57.58,1.87,8.46,7.38,20.58,17,31.98.89,8.36,3.55,16.72,9.8,22.12,3.28,2.84,6.61,3.93,10.06,3.93,1.15,0,2.31-.13,3.49-.34,6.7,11.26,19.99,23.05,46.27,23.05s39.56-11.78,46.26-23.04c4.71.87,9.18.19,13.55-3.59,6.24-5.41,8.91-13.76,9.8-22.12,9.62-11.4,15.13-23.53,17-31.98,1.14-5.16,4.44-29.78,8.01-57.58,20.75,2.24,35.24-.03,55.63-9.84,28.48-13.7,33.44-28.85,33.15-33.98-.29-5.12-7.26-13.75-39.08-24.81-12.71-4.42-23.78-5.82-32.5-5.91-.02-.99-.06-1.98-.11-2.98,62.67-8.91,72.07-15.98,91.66-32.64,22.6-19.22,26.92-50.18,43.15-86.29,10.79-24,30.53-26.62,36.7-33.33,3.92-4.27-.17-8.96-5.96-9.07Z"/>
  </g>
</svg>