<?xml version="1.0" encoding="UTF-8"?>
<svg id="Layer_2" data-name="Layer 2" xmlns="http://www.w3.org/2000/svg" viewBox="0 0 223.38 295.95">
  <defs>
    <style>
      .cls-1 {
        fill: #231f20;
        stroke-width: 0px;
      }
    </style>
  </defs>
  <g id="Layer_2-2" data-name="Layer 2">
    <g>
      <path class="cls-1" d="M222.68,73.6c-1.31-10.68-8.37-46.71-44.35-61.94C149.24-.65,112.45.11,109.97.18c-2.96-.15-50.14-2.2-74.96,12.67C6.54,29.91-7.66,91.69,4.19,120.7c5.89,14.43,12.52,23.79,19.69,27.82,2.28,1.28,5.04,1.16,7.21-.34,2.19-1.51,3.3-4.08,2.9-6.7l-2.51-16.6c-.54-3.57-.27-8.02.8-13.26,0,0,0,.01.01.04,3.13,15.85,10.46,43.27,24.36,48.92,1.45.59,3.11.44,4.45-.39,1.34-.83,2.17-2.21,2.28-3.77.28-3.99-1.65-10.04-3.89-17.04-2.73-8.54-5.8-18.15-4.79-24.35,4.23,7,13.18,21.72,18.08,29.17.54.82,1.41,1.36,2.39,1.48.96.11,1.93-.19,2.64-.85,2.82-2.61,3.65-8.95,2.47-18.84l-1.33-11.14c10.57,13.67,17.1,25.6,17.92,32.72.2,1.76,1.37,3.18,3.05,3.72,1.65.53,3.39.06,4.55-1.23,1.79-2,3.58-4.98,5.33-8.89-2.59,12.53-4.79,20.75-6.29,23.45-.95,1.7-.61,3.73.83,5.04.79.72,1.77,1.09,2.76,1.09.8,0,1.6-.24,2.32-.73,8.21-5.59,18.41-13.8,20.43-21.14l1-3.63c.55,3.47.61,7.56-1.44,9.83l-3.93,4.34c-.75.83-.93,2.03-.45,3.04.48,1.02,1.52,1.64,2.64,1.59,5.1-.24,22.1-2.23,26.98-17.82l.05-.17c-.32,3.46-.68,6.98-1.04,9.92-.27,2.17.71,4.24,2.54,5.42,1.84,1.19,4.15,1.21,6.03.07,4.96-3.03,11.83-8.04,16.42-14.7,4.19-6.07,8.16-13.7,10.9-20.96.04-.09.12-.34.49-.3.35.04.39.3.4.4,1.18,9.21,3.36,21.71,7,29.01.77,1.54,2.42,2.34,4.11,1.97,1.67-.36,2.83-1.76,2.89-3.47.24-7.12,5.2-19.55,8.94-24.36,5.81-7.46,12.15-32.18,9.3-55.47Z"/>
      <path class="cls-1" d="M143.01,194.33h-62.96c-18.78,0-34.93,14.06-37.55,32.71-1.61,11.42-2.55,32.09,9.22,42.28,3.28,2.84,6.61,3.93,10.06,3.93,1.15,0,2.31-.13,3.49-.34,6.7,11.26,19.99,23.05,46.27,23.05s39.56-11.78,46.26-23.04c4.71.87,9.18.19,13.55-3.59,11.77-10.19,10.83-30.86,9.22-42.28-2.63-18.65-18.77-32.71-37.55-32.71Z"/>
    </g>
  </g>
</svg>