<?xml version="1.0" encoding="UTF-8"?>
<svg id="Layer_2" data-name="Layer 2" xmlns="http://www.w3.org/2000/svg" viewBox="0 0 366.82 295.95">
  <defs>
    <style>
      .cls-1 {
        fill: #fbb040;
        stroke-width: 0px;
      }
    </style>
  </defs>
  <g id="Layer_2-2" data-name="Layer 2">
    <path class="cls-1" d="M366.81,113.82c-.29-5.12-7.26-13.75-39.08-24.81-12.71-4.42-23.78-5.82-32.5-5.91-.07-3.16-.28-6.34-.67-9.5-1.31-10.68-8.37-46.71-44.35-61.94C221.12-.65,184.33.11,181.85.18c-2.96-.15-50.14-2.2-74.96,12.67-18.86,11.3-31.45,42.22-34.36,70.25-8.86,0-20.26,1.34-33.44,5.92C7.27,100.06.3,108.69.01,113.82c-.29,5.12,4.67,20.28,33.15,33.98,20.39,9.81,34.89,12.08,55.63,9.84,3.57,27.79,6.87,52.42,8.01,57.58,1.87,8.46,7.38,20.58,17,31.98.89,8.36,3.55,16.72,9.8,22.12,3.28,2.84,6.61,3.93,10.06,3.93,1.15,0,2.31-.13,3.49-.34,6.7,11.26,19.99,23.05,46.27,23.05s39.56-11.78,46.26-23.04c4.71.87,9.18.19,13.55-3.59,6.24-5.4,8.91-13.76,9.8-22.12,9.62-11.4,15.13-23.53,17-31.98,1.14-5.16,4.44-29.78,8.01-57.58,20.75,2.24,35.24-.03,55.63-9.84,28.48-13.7,33.44-28.85,33.15-33.98ZM25.07,121.96c-4.76-4.31,6.38-12.04,25.62-14.17,6.56-.72,14.27-.83,21.8-.62.65,5.46,1.83,10.45,3.58,14.73,2.07,5.06,4.22,9.48,6.46,13.28-25.45-.33-48.66-5.26-57.46-13.22ZM341.75,121.96c-9.04,8.17-33.24,13.15-59.48,13.24,1.01-1.99,2.03-3.71,2.98-4.93,3.02-3.89,6.19-12.46,8.14-23.07,7.83-.24,15.91-.16,22.74.6,19.24,2.12,30.39,9.86,25.62,14.17Z"/>
  </g>
</svg>