<?xml version="1.0" encoding="UTF-8"?>
<svg id="Layer_2" data-name="Layer 2" xmlns="http://www.w3.org/2000/svg" viewBox="0 0 215.46 287.47">
  <defs>
    <style>
      .cls-1 {
        fill: #ec008c;
        stroke-width: 0px;
      }
    </style>
  </defs>
  <g id="Layer_2-2" data-name="Layer 2">
    <path class="cls-1" d="M65.41,267.42c3.01-.99,6.12-2.41,9.39-3.9,8.51-3.89,19.1-8.72,33.03-8.72s24.52,4.84,33.03,8.72c3.23,1.47,6.31,2.88,9.29,3.87-.07.11-.14.22-.21.34-8.45,13.1-22.61,19.75-42.11,19.75-23.86,0-36.12-10.08-42.42-20.05ZM164.79,262.43c-6.03,5.22-11.87,2.93-22.51-1.93-8.86-4.05-19.89-9.08-34.69-9.08s-25.83,5.04-34.69,9.08c-10.64,4.86-16.48,7.15-22.51,1.93-7.55-6.53-10.42-20.64-7.87-38.69,2.35-16.68,16.79-29.27,33.59-29.27h62.96c16.8,0,31.24,12.58,33.59,29.27,2.54,18.06-.33,32.16-7.87,38.69ZM88.06,224.64c-1.25-.99-16.75-7.77-23.46-11.38-2.54-1.37-5.79,1.92-3.75,3.95,16.71,16.71,15.03,27.73,24.09,27.73,5.99,0,9.72-15.06,3.12-20.3ZM150.99,213.26c-6.71,3.62-22.21,10.39-23.46,11.38-6.61,5.24-2.88,20.3,3.12,20.3,9.06,0,7.38-11.02,24.09-27.73,2.04-2.04-1.21-5.32-3.75-3.95ZM33.14,12.25c-11.99,7.18-22.71,24.63-28.68,46.68-5.77,21.3-5.96,42.85-.49,56.22,6.91,16.91,13.57,23.39,17.95,25.85.96.54,2.07.48,2.98-.15.93-.64,1.39-1.69,1.22-2.81l-2.51-16.6c-.61-4.04-.33-8.96.84-14.64.39-1.88,2-3.19,3.92-3.19h.02c1.93,0,3.54,1.33,3.92,3.23,2.4,12.12,9.33,40.86,21.94,45.98.39.16.71,0,.83-.08.14-.09.38-.29.41-.66.23-3.22-1.68-9.21-3.71-15.54-3.07-9.6-6.55-20.49-4.59-27.74.37-1.38,1.52-2.4,2.93-2.6,1.39-.2,2.76.46,3.49,1.66,3.77,6.24,12.87,21.25,18.1,29.27.76-1.4,1.86-5.18.72-14.73l-1.33-11.14c-.22-1.81.77-3.49,2.46-4.18,1.68-.69,3.56-.19,4.67,1.25,6.47,8.37,17.5,24,18.73,34.71.03.24.2.33.3.37.21.07.31-.04.36-.09,1.4-1.55,3.61-4.83,6.21-11.63l1.09-2.85c.51-1.33,1.72-2.14,3.06-2.14.31,0,.63.04.96.14,1.7.48,2.68,2.09,2.35,3.83-3.38,17.48-6.13,28.19-8.16,31.84-.02.11.06.18.1.18,10.87-7.4,17.56-14.11,18.88-18.93l2.28-8.29c.33-1.22,1.41-2.04,2.67-2.05,1.24,0,2.34.79,2.69,2,1.4,4.77,3.09,13.49-1.26,18.29l-1.83,2.02c6.54-.84,16.9-3.92,20.28-14.75l2.67-8.53c.47-1.51,1.94-2.38,3.49-2.08,1.55.3,2.58,1.66,2.45,3.23-.44,5.47-1.11,13.18-1.8,18.81-.11.92.48,1.4.74,1.57.21.13.94.53,1.78.02,4.63-2.83,11.02-7.48,15.22-13.56,4.01-5.81,7.82-13.13,10.45-20.1.74-1.95,2.63-3.1,4.69-2.86,2.07.24,3.63,1.79,3.9,3.86,1.54,11.96,3.64,21.13,6.11,26.66.71-8.2,5.7-20.31,9.7-25.46,5.26-6.76,11.18-30.58,8.49-52.53-1.24-10.14-7.93-44.35-41.94-58.74C144.18-.81,106.46.14,106.08.15h-.08s-.08,0-.08,0c-.49-.03-48.75-2.3-72.78,12.11Z"/>
  </g>
</svg>