<?xml version="1.0" encoding="UTF-8"?>
<svg id="Layer_2" data-name="Layer 2" xmlns="http://www.w3.org/2000/svg" viewBox="0 0 121.63 107.17">
  <defs>
    <style>
      .cls-1 {
        fill: #ee2a7b;
        stroke-width: 0px;
      }
    </style>
  </defs>
  <g id="Layer_2-2" data-name="Layer 2">
    <g>
      <path class="cls-1" d="M8.38,107.11c-2.26.26-4.1-.27-5.53-1.58s-2.29-3.26-2.59-5.86c-.41-3.61-.32-6.75.29-9.43.61-2.68,1.68-4.79,3.22-6.36s3.49-2.48,5.87-2.75c2.25-.26,4.08.25,5.51,1.53,1.43,1.28,2.28,3.18,2.58,5.72.42,3.64.32,6.82-.28,9.52-.6,2.71-1.67,4.85-3.2,6.43-1.53,1.58-3.48,2.5-5.86,2.78ZM8.42,104.4c1.65-.19,3-.92,4.05-2.2,1.04-1.28,1.76-3.02,2.13-5.24.38-2.22.39-4.84.05-7.85-.21-1.82-.75-3.19-1.62-4.11-.87-.93-1.99-1.31-3.35-1.16-1.69.19-3.07.92-4.14,2.18-1.07,1.26-1.8,2.99-2.2,5.18-.4,2.19-.42,4.78-.08,7.76.21,1.88.78,3.29,1.69,4.25.91.96,2.07,1.36,3.48,1.19Z"/>
      <path class="cls-1" d="M22.91,104.94l-1.21-25.32,2.93-.66,1.21,25.32-2.93.66ZM23.1,93.57l-.11-2.79,14.08-3.18.12,2.78-14.09,3.18ZM35.48,102.11l-1.21-25.32,2.93-.66,1.21,25.32-2.93.66Z"/>
      <path class="cls-1" d="M52.87,97.17c-2.77,1.08-5.31,1.51-7.6,1.31l-.1-2.84c2.61.08,4.96-.28,7.04-1.09,1.79-.7,3.06-1.52,3.79-2.47s.89-1.97.47-3.07c-.26-.67-.64-1.19-1.14-1.57-.5-.38-1.12-.69-1.87-.94l-6.39-2.12c-1.07-.35-1.98-.87-2.73-1.56-.75-.69-1.3-1.48-1.65-2.38-.75-1.93-.69-3.65.18-5.16.87-1.51,2.49-2.72,4.85-3.64,2.98-1.16,5.69-1.15,8.14.03l-1.17,2.81c-1.13-.48-2.21-.73-3.25-.76-1.04-.03-2.02.14-2.95.5-1.37.53-2.32,1.21-2.86,2.04-.54.83-.61,1.76-.21,2.79.23.6.63,1.14,1.2,1.62.57.48,1.26.85,2.07,1.13l5.53,1.81c1.27.42,2.32.93,3.13,1.51.82.58,1.42,1.38,1.82,2.4.79,2.03.64,3.88-.45,5.53-1.09,1.65-3.04,3.03-5.87,4.13Z"/>
      <path class="cls-1" d="M87.41,76.05l-2.51-1.72c1.09-4.61,1.46-8.56,1.08-11.85s-1.47-5.69-3.29-7.2c-.8-.67-1.61-.94-2.41-.84-.81.11-1.58.6-2.31,1.49-.57.69-1.01,1.6-1.31,2.72s-.4,2.3-.3,3.53h-2.28c-.2-1.37-.09-2.8.33-4.26.42-1.46,1.09-2.74,2-3.84,1.23-1.48,2.5-2.32,3.81-2.52,1.31-.2,2.62.25,3.94,1.34,2.11,1.75,3.43,4.21,3.95,7.38.53,3.17.37,6.91-.47,11.2l2.11,1.77-2.33,2.8ZM88.01,75.33l-2.04-1.35,8.6-10.36,1.61,1.88-8.16,9.83Z"/>
      <path class="cls-1" d="M104.02,53.45c-.89,1.62-2.15,2.56-3.79,2.84s-3.48-.14-5.51-1.26c-2.83-1.56-5.06-3.23-6.7-5.03-1.64-1.8-2.64-3.64-3-5.52-.36-1.88-.05-3.73.95-5.53.88-1.6,2.12-2.54,3.73-2.83,1.61-.29,3.41.11,5.4,1.2,2.86,1.57,5.12,3.26,6.78,5.07,1.66,1.81,2.69,3.65,3.07,5.53.38,1.88.08,3.72-.92,5.53ZM102.13,51.91c.67-1.22.79-2.52.37-3.88s-1.37-2.75-2.82-4.15c-1.45-1.4-3.37-2.76-5.76-4.08-1.39-.76-2.61-1.09-3.68-.97-1.06.12-1.86.65-2.38,1.61-.68,1.24-.81,2.55-.39,3.93.42,1.38,1.35,2.77,2.78,4.17s3.34,2.76,5.73,4.07c1.4.77,2.64,1.09,3.72.97s1.9-.68,2.44-1.66ZM96.92,47.32c-.29.53-.7.87-1.23,1.03s-1.06.09-1.6-.21c-.54-.3-.88-.71-1.03-1.24-.15-.53-.08-1.06.21-1.59.3-.54.71-.89,1.23-1.04.53-.16,1.06-.09,1.6.21.54.3.88.71,1.03,1.24s.08,1.06-.22,1.6Z"/>
      <path class="cls-1" d="M110,41.26l-2.88-.99c-.17-4.74-.87-8.64-2.1-11.71-1.23-3.07-2.93-5.09-5.08-6.06-.95-.43-1.8-.48-2.55-.16-.75.32-1.36,1-1.83,2.04-.37.82-.55,1.81-.54,2.97,0,1.16.22,2.33.65,3.49l-2.2.62c-.56-1.28-.84-2.69-.82-4.21.02-1.52.32-2.93.91-4.24.79-1.76,1.79-2.91,3-3.45s2.59-.46,4.15.24c2.5,1.13,4.42,3.15,5.77,6.07,1.35,2.92,2.19,6.56,2.52,10.92l2.5,1.15-1.5,3.32ZM110.38,40.41l-2.33-.76,5.54-12.28,2.05,1.39-5.26,11.65Z"/>
      <path class="cls-1" d="M108.92,17.58l-9.67-6.66,1.13-2.47,8.06,5.53,1.15,2.14-.67,1.46ZM101.83,11.07l-2.13-1.13,4.55-9.95,2.01,1.38-4.43,9.69ZM120.51,18.54c-.95,2.07-2.16,3.35-3.66,3.84-1.49.5-3.1.15-4.81-1.03l1.14-2.49c1.09.75,2.11.96,3.06.64s1.72-1.14,2.33-2.46c.75-1.64.86-3.14.34-4.49-.52-1.36-1.63-2.42-3.33-3.2-1.14-.52-2.17-.61-3.1-.26-.93.35-1.66,1.1-2.18,2.26-.66,1.45-.9,3.04-.7,4.76l-1.94-1.2c-.11-1.13-.07-2.15.12-3.07.2-.92.48-1.78.84-2.57.73-1.59,1.79-2.61,3.18-3.05s2.97-.26,4.73.54c2.43,1.11,4,2.71,4.7,4.78.7,2.07.46,4.4-.72,6.99Z"/>
    </g>
  </g>
</svg>